<?xml version="1.0" encoding="utf-8"?> <!-- Generator: IcoMoon.io --> <!DOCTYPE svg PUBLIC "-//W3C//DTD SVG 1.1//EN" "http://www.w3.org/Graphics/SVG/1.1/DTD/svg11.dtd"> <svg width="512" height="512" viewBox="0 0 512 512" xmlns="http://www.w3.org/2000/svg" xmlns:xlink="http://www.w3.org/1999/xlink" fill="#000000"><g class="svgGrid" id="svgGrid"><line stroke-width="1" stroke="#B35047" x1="32" x2="32" y1="0" y2="512"></line><line stroke-width="1" stroke="#B35047" x1="64" x2="64" y1="0" y2="512"></line><line stroke-width="1" stroke="#B35047" x1="96" x2="96" y1="0" y2="512"></line><line stroke-width="1" stroke="#B35047" x1="128" x2="128" y1="0" y2="512"></line><line stroke-width="1" stroke="#B35047" x1="160" x2="160" y1="0" y2="512"></line><line stroke-width="1" stroke="#B35047" x1="192" x2="192" y1="0" y2="512"></line><line stroke-width="1" stroke="#B35047" x1="224" x2="224" y1="0" y2="512"></line><line stroke-width="1" stroke="#B35047" x1="256" x2="256" y1="0" y2="512"></line><line stroke-width="1" stroke="#B35047" x1="288" x2="288" y1="0" y2="512"></line><line stroke-width="1" stroke="#B35047" x1="320" x2="320" y1="0" y2="512"></line><line stroke-width="1" stroke="#B35047" x1="352" x2="352" y1="0" y2="512"></line><line stroke-width="1" stroke="#B35047" x1="384" x2="384" y1="0" y2="512"></line><line stroke-width="1" stroke="#B35047" x1="416" x2="416" y1="0" y2="512"></line><line stroke-width="1" stroke="#B35047" x1="448" x2="448" y1="0" y2="512"></line><line stroke-width="1" stroke="#B35047" x1="480" x2="480" y1="0" y2="512"></line><line stroke-width="1" stroke="#B35047" x1="0" x2="512" y1="32" y2="32"></line><line stroke-width="1" stroke="#B35047" x1="0" x2="512" y1="64" y2="64"></line><line stroke-width="1" stroke="#B35047" x1="0" x2="512" y1="96" y2="96"></line><line stroke-width="1" stroke="#B35047" x1="0" x2="512" y1="128" y2="128"></line><line stroke-width="1" stroke="#B35047" x1="0" x2="512" y1="160" y2="160"></line><line stroke-width="1" stroke="#B35047" x1="0" x2="512" y1="192" y2="192"></line><line stroke-width="1" stroke="#B35047" x1="0" x2="512" y1="224" y2="224"></line><line stroke-width="1" stroke="#B35047" x1="0" x2="512" y1="256" y2="256"></line><line stroke-width="1" stroke="#B35047" x1="0" x2="512" y1="288" y2="288"></line><line stroke-width="1" stroke="#B35047" x1="0" x2="512" y1="320" y2="320"></line><line stroke-width="1" stroke="#B35047" x1="0" x2="512" y1="352" y2="352"></line><line stroke-width="1" stroke="#B35047" x1="0" x2="512" y1="384" y2="384"></line><line stroke-width="1" stroke="#B35047" x1="0" x2="512" y1="416" y2="416"></line><line stroke-width="1" stroke="#B35047" x1="0" x2="512" y1="448" y2="448"></line><line stroke-width="1" stroke="#B35047" x1="0" x2="512" y1="480" y2="480"></line><rect x="0" y="0" width="512" height="512" fill="none" stroke-width="1" stroke="#B35047"></rect></g><path d="M 420.00,224.00l0.00,64.00 c0.00,43.807-17.059,84.99-48.035,115.966C 340.99,434.941, 299.807,452.00, 256.00,452.00 c-43.806,0.00-84.99-17.059-115.965-48.034C 109.06,372.99, 92.00,331.807, 92.00,288.00l0.00-64.00 L 64.00,224.00 l0.00,64.00 c0.00,95.135, 69.195,174.094, 160.00,189.33L 224.00,480.00 l-96.00,0.00 l0.00,32.00 l 256.00,0.00 l0.00-32.00 l-96.00,0.00 l0.00-2.67 c 90.804-15.236, 160.00-94.195, 160.00-189.33l0.00-64.00 L 420.00,224.00 zM 256.00,0.00c-70.692,0.00-128.00,57.308-128.00,128.00l0.00,160.00 c0.00,70.693, 57.308,128.00, 128.00,128.00c 70.692,0.00, 128.00-57.307, 128.00-128.00L 384.00,128.00 C 384.00,57.308, 326.692,0.00, 256.00,0.00z M 348.00,79.548c 3.314,6.269, 6.012,12.912, 8.00,19.852L 356.00,192.00 l-8.00,0.00 L 348.00,79.548 z M 332.00,57.088 c 2.854,3.057, 5.526,6.286, 8.00,9.669L 340.00,192.00 l-8.00,0.00 L 332.00,57.088 z M 316.00,43.099c 2.77,1.962, 5.439,4.056, 8.00,6.273L 324.00,192.00 l-8.00,0.00 L 316.00,43.099 z M 300.00,33.781 c 2.732,1.281, 5.402,2.674, 8.00,4.18L 308.00,192.00 l-8.00,0.00 L 300.00,33.781 z M 284.00,27.833c 2.713,0.759, 5.381,1.625, 8.00,2.594L 292.00,192.00 l-8.00,0.00 L 284.00,27.833 z M 268.00,24.696 c 2.699,0.312, 5.367,0.726, 8.00,1.241L 276.00,192.00 l-8.00,0.00 L 268.00,24.696 z M 252.00,24.084c 1.328-0.051, 2.66-0.084, 4.00-0.084s 2.672,0.034, 4.00,0.084L 260.00,192.00 l-8.00,0.00 L 252.00,24.084 z M 236.00,25.938c 2.633-0.515, 5.301-0.93, 8.00-1.241L 244.00,192.00 l-8.00,0.00 L 236.00,25.938 z M 220.00,30.427c 2.619-0.969, 5.287-1.834, 8.00-2.594L 228.00,192.00 l-8.00,0.00 L 220.00,30.427 z M 204.00,37.961c 2.597-1.506, 5.268-2.898, 8.00-4.18L 212.00,192.00 l-8.00,0.00 L 204.00,37.961 z M 188.00,49.372c 2.561-2.217, 5.231-4.311, 8.00-6.273L 196.00,192.00 l-8.00,0.00 L 188.00,49.372 z M 172.00,66.757c 2.474-3.383, 5.146-6.612, 8.00-9.669L 180.00,192.00 l-8.00,0.00 L 172.00,66.757 z M 156.00,99.40c 1.988-6.94, 4.686-13.583, 8.00-19.852L 164.00,192.00 l-8.00,0.00 L 156.00,99.40 z M 360.00,288.00 c0.00,57.346-46.654,104.00-104.00,104.00s-104.00-46.654-104.00-104.00l0.00-64.00 l 208.00,0.00 L 360.00,288.00 z" ></path></svg>