<?xml version="1.0" encoding="utf-8"?>
<!-- Generated by IcoMoon.io -->
<!DOCTYPE svg PUBLIC "-//W3C//DTD SVG 1.1//EN" "http://www.w3.org/Graphics/SVG/1.1/DTD/svg11.dtd">
<svg version="1.1" xmlns="http://www.w3.org/2000/svg" xmlns:xlink="http://www.w3.org/1999/xlink" width="90" height="90" viewBox="0 0 90 90">
<path fill="#444444" d="M78.75 50.712h-2.813v19.688c0 4.657-3.78 8.438-8.438 8.438h-11.25v11.076h-30.938v-11.076h-11.25c-4.66 0-8.438-3.78-8.438-8.438v-47.813c0-4.66 3.777-8.437 8.438-8.437h11.25v-11.25h30.938v11.25h11.25c4.657 0 8.438 3.777 8.438 8.437v19.688h2.813c1.552 0 2.813 1.26 2.813 2.813v2.813c0 1.552-1.26 2.813-2.813 2.813zM70.313 25.4c0-3.108-2.52-5.625-5.625-5.625h-47.813c-3.105 0-5.625 2.52-5.625 5.625v42.188c0 3.105 2.52 5.625 5.625 5.625h47.813c3.105 0 5.625-2.52 5.625-5.625v-42.188zM59.063 47.9h-5.625v-8.438h2.813v5.625h2.813v-5.625h2.813v14.063h-2.813v-5.625zM45 53.525h-2.813v-14.063h8.438v14.063h-5.625zM47.813 42.275h-2.813v8.438h2.813v-8.438zM36.563 47.9h2.813v2.813h-2.813v-2.813zM36.563 42.275h2.813v2.813h-2.813v-2.813zM28.125 53.525v-2.813h2.813v-2.813h-2.813v-2.813h2.813v-2.813h-2.813v-2.813h5.625v14.063h-5.625zM19.688 53.525v-8.438h2.813v-2.813h-2.813v-2.813h5.625v8.438h-2.813v2.813h2.813v2.813h-5.625z"></path>
</svg>
